# xmcd
#
# Track frame offsets:
# 150
# 14510
# 28695
# 45994
# 56198
# 71065
# 87496
# 104184
# 114803
# 137442
# 146869
# 168054
# 179453
# 187134
# 200456
# 211942
# 227980
# 241418
#
# Disc length: 3401 seconds
#
#
# Revision: 0
# Processed by: cddbd v1.5.1PL0 Copyright (c) Steve Scherf et al.
# Submitted via: FreeRIP 2.942 
#
DISCID=0b0d4712
DTITLE=Alex e Luan - Forró Ao Vivo Vol.03
DYEAR=2005
DGENRE=Country
TTITLE0=Versão: Alan Jackson
TTITLE1=Como Te Quero
TTITLE2=Anjo Te Adoro
TTITLE3=Baton Na Boca
TTITLE4=Onde Estará
TTITLE5=Peço Perdão
TTITLE6=Dinheiro Na Mão, Calcinha No Chão
TTITLE7=Porta Retrato
TTITLE8=Não Chores Mais
TTITLE9=Rabo de Saia
TTITLE10=Cai Sereno, Cai
TTITLE11=Chega Junto
TTITLE12=Abra a Janela
TTITLE13=Bate a Bota No Chão
TTITLE14=Ainda Te Amo
TTITLE15=Chamo Por Você
TTITLE16=Deusa
TTITLE17=Nenêm
EXTD=
EXTT0=
EXTT1=
EXTT2=
EXTT3=
EXTT4=
EXTT5=
EXTT6=
EXTT7=
EXTT8=
EXTT9=
EXTT10=
EXTT11=
EXTT12=
EXTT13=
EXTT14=
EXTT15=
EXTT16=
EXTT17=
PLAYORDER=
